<svg width="16" height="16" viewBox="0 0 16 16" fill="none" xmlns="http://www.w3.org/2000/svg">
<path d="M8.26667 14.5C6.54276 14.5 4.88946 13.8152 3.67047 12.5962C2.45148 11.3772 1.76666 9.72393 1.76666 8C1.76666 6.27609 2.45148 4.62279 3.67047 3.40381C4.88946 2.18482 6.54276 1.5 8.26667 1.5C8.39927 1.5 8.52647 1.55268 8.6202 1.64645C8.714 1.74021 8.76667 1.86739 8.76667 2C8.76667 2.13261 8.714 2.25979 8.6202 2.35355C8.52647 2.44732 8.39927 2.5 8.26667 2.5C6.808 2.5 5.40903 3.07946 4.37758 4.11091C3.34613 5.14236 2.76666 6.54131 2.76666 8C2.76666 9.45867 3.34613 10.8577 4.37758 11.8891C5.40903 12.9205 6.808 13.5 8.26667 13.5C8.99547 13.5024 9.7174 13.3585 10.3896 13.0767C11.0618 12.7951 11.6706 12.3813 12.18 11.86C12.2737 11.7654 12.4011 11.7119 12.5343 11.7113C12.6675 11.7107 12.7954 11.7629 12.89 11.8567C12.9846 11.9504 13.0381 12.0778 13.0387 12.211C13.0393 12.3441 12.9871 12.4721 12.8933 12.5667C12.2899 13.181 11.5698 13.6685 10.7753 14.0005C9.98067 14.3326 9.1278 14.5024 8.26667 14.5Z" fill="#45BD62"/>
<path d="M8.06668 10.3C8.00101 10.3003 7.93588 10.2874 7.87521 10.2623C7.81455 10.2371 7.75948 10.2 7.71335 10.1533L5.04667 7.48663C4.95835 7.39183 4.91027 7.2665 4.91255 7.13697C4.91484 7.00743 4.96732 6.88384 5.05893 6.79224C5.15053 6.70064 5.27413 6.64813 5.40366 6.64585C5.53319 6.64357 5.65856 6.69164 5.75334 6.77997L8.06668 9.0933L13.4 3.75997C13.4458 3.71084 13.501 3.67144 13.5623 3.64411C13.6237 3.61679 13.6899 3.60209 13.757 3.60091C13.8241 3.59972 13.8908 3.61207 13.9531 3.63722C14.0153 3.66237 14.0719 3.69979 14.1193 3.74727C14.1668 3.79475 14.2043 3.85131 14.2294 3.91357C14.2545 3.97583 14.2669 4.04251 14.2657 4.10965C14.2645 4.17678 14.2499 4.24299 14.2225 4.30433C14.1952 4.36566 14.1558 4.42086 14.1067 4.46663L8.44001 10.1333C8.39361 10.1865 8.33615 10.229 8.27168 10.2578C8.20721 10.2865 8.13728 10.3009 8.06668 10.3Z" fill="#45BD62"/>
</svg>
