<svg width="16" height="16" viewBox="0 0 16 16" fill="none" xmlns="http://www.w3.org/2000/svg">
<path d="M3.6644 3.17285C6.02661 1.03608 9.56175 1.0034 11.9566 2.95394L10.0584 3.02582C9.81333 3.03562 9.62383 3.23819 9.63363 3.48323C9.64344 3.72174 9.83947 3.90797 10.0747 3.90797C10.0812 3.90797 10.0845 3.90797 10.091 3.90797L13.0054 3.80016C13.2439 3.79035 13.4302 3.59759 13.4302 3.35908V3.32641C13.4302 3.31987 13.4302 3.31661 13.4302 3.31007V3.3068L13.3223 0.425104C13.3125 0.180062 13.1067 -0.009438 12.8649 0.000363705C12.6199 0.0101654 12.4304 0.212734 12.4402 0.457776L12.5088 2.26456C11.3228 1.29419 9.86234 0.732224 8.3006 0.65381C6.3664 0.555793 4.50734 1.21904 3.07303 2.5194C1.09962 4.30658 0.263209 7.02491 0.890518 9.61256C0.939526 9.81513 1.11922 9.94909 1.31853 9.94909C1.35446 9.94909 1.38714 9.94582 1.42308 9.93602C1.65832 9.87721 1.80534 9.6387 1.74653 9.40346C1.19764 7.12947 1.9295 4.74112 3.6644 3.17285Z" fill="#18191A"/>
<path d="M15.1095 6.38782C15.0507 6.15258 14.8122 6.00555 14.5769 6.06436C14.3417 6.12317 14.1946 6.36168 14.2535 6.59692C14.8056 8.87091 14.0705 11.2593 12.3356 12.8275C11.1169 13.9286 9.58784 14.471 8.06531 14.471C6.61139 14.471 5.16074 13.9776 3.99107 13.004L5.91221 12.8308C6.15398 12.8079 6.33368 12.5956 6.31081 12.3505C6.28794 12.1055 6.07557 11.929 5.83053 11.9519L2.92596 12.2133C2.68418 12.2362 2.50448 12.4485 2.52735 12.6936L2.78873 15.5981C2.80834 15.8269 3.0011 16 3.22654 16C3.23961 16 3.25268 16 3.26575 15.9967C3.50752 15.9739 3.68722 15.7615 3.66435 15.5165L3.50752 13.7489C4.69353 14.7095 6.14745 15.2682 7.69938 15.3466C7.82354 15.3531 7.94769 15.3564 8.06858 15.3564C9.86883 15.3564 11.5809 14.6964 12.927 13.481C14.9004 11.6938 15.7368 8.97873 15.1095 6.38782Z" fill="#18191A"/>
</svg>
