<svg width="16" height="16" viewBox="0 0 16 16" fill="none" xmlns="http://www.w3.org/2000/svg">
<path d="M1.85938 1.14062L1.14062 1.85938L4.25 4.95312L9.79688 10.5L10.75 11.4688L14.1406 14.8594L14.8594 14.1406L11.75 11.0312C13.8672 9.98242 15.2871 8.42578 15.375 8.32812L15.6719 8L15.375 7.67188C15.2402 7.52148 12.043 4 8 4C7.02148 4 6.09766 4.21484 5.25 4.53125L1.85938 1.14062ZM8 5C9.07617 5 10.0938 5.30273 11 5.71875C11.3223 6.25781 11.5 6.86719 11.5 7.5C11.5 8.4082 11.1484 9.23828 10.5781 9.85938L9.15625 8.4375C9.36523 8.18164 9.5 7.85742 9.5 7.5C9.5 6.67188 8.82812 6 8 6C7.64258 6 7.31836 6.13477 7.0625 6.34375L6.04688 5.32812C6.66797 5.13672 7.31836 5 8 5ZM3.34375 5.45312C1.74023 6.43945 0.699219 7.58789 0.625 7.67188L0.328125 8L0.625 8.32812C0.753907 8.47266 3.71484 11.7129 7.53125 11.9688C7.68555 11.9844 7.8418 12 8 12C8.1582 12 8.31445 11.9844 8.46875 11.9688C8.88086 11.9414 9.2832 11.8867 9.67188 11.7969L8.78125 10.9062C8.52734 10.9648 8.26953 11 8 11C6.07031 11 4.5 9.42969 4.5 7.5C4.5 7.23438 4.53516 6.97461 4.59375 6.71875L3.34375 5.45312ZM3.625 6.46875C3.54492 6.80664 3.5 7.15039 3.5 7.5C3.5 8.36914 3.74414 9.16992 4.17188 9.85938C3.02734 9.20312 2.15234 8.43359 1.70312 8C2.07617 7.63867 2.74805 7.03906 3.625 6.46875ZM12.375 6.46875C13.252 7.03906 13.9219 7.63867 14.2969 8C13.8477 8.43359 12.959 9.21875 11.8125 9.875C12.2422 9.18555 12.5 8.36914 12.5 7.5C12.5 7.15039 12.4551 6.80469 12.375 6.46875Z" fill="#E4E6EB"/>
</svg>