<svg width="16" height="16" viewBox="0 0 16 16" fill="none" xmlns="http://www.w3.org/2000/svg">
<path d="M8 4C3.83203 4 0.625 7.67188 0.625 7.67188L0.328125 8L0.625 8.32812C0.625 8.32812 3.54883 11.6621 7.4375 11.9688C7.62305 11.9922 7.80859 12 8 12C8.19141 12 8.37695 11.9922 8.5625 11.9688C12.4512 11.6621 15.375 8.32812 15.375 8.32812L15.6719 8L15.375 7.67188C15.375 7.67188 12.168 4 8 4ZM8 5C9.10156 5 10.1172 5.30078 11 5.70312C11.3184 6.23047 11.5 6.83789 11.5 7.5C11.5 9.30664 10.1445 10.791 8.39062 10.9844C8.38086 10.9863 8.36914 10.9824 8.35938 10.9844C8.24023 10.9902 8.12109 11 8 11C7.86719 11 7.73828 10.9922 7.60938 10.9844C5.85547 10.791 4.5 9.30664 4.5 7.5C4.5 6.84766 4.67578 6.24023 4.98438 5.71875H4.96875C5.85938 5.30859 6.88672 5 8 5ZM8 6C7.17188 6 6.5 6.67188 6.5 7.5C6.5 8.32812 7.17188 9 8 9C8.82812 9 9.5 8.32812 9.5 7.5C9.5 6.67188 8.82812 6 8 6ZM3.625 6.46875C3.54688 6.80469 3.5 7.14258 3.5 7.5C3.5 8.37695 3.75 9.19727 4.1875 9.89062C2.92773 9.16211 2.05273 8.29297 1.76562 8C2.00586 7.75391 2.67578 7.10156 3.625 6.46875ZM12.375 6.46875C13.3242 7.10156 13.9941 7.75391 14.2344 8C13.9473 8.29297 13.0723 9.16211 11.8125 9.89062C12.25 9.19727 12.5 8.37695 12.5 7.5C12.5 7.14258 12.4531 6.80078 12.375 6.46875Z" fill="#E4E6EB"/>
</svg>
