<svg width="16" height="16" viewBox="0 0 16 16" fill="none" xmlns="http://www.w3.org/2000/svg">
<path d="M12.6406 1.95627L13.4156 1.85939C13.7625 1.81564 14.0094 1.50002 13.9688 1.15002C13.9281 0.82814 13.6656 0.56564 13.2594 0.59689L10.9281 0.887515C10.5813 0.931265 10.3344 1.24689 10.375 1.59377L10.6625 3.95626C10.7063 4.30314 11.0219 4.55314 11.3688 4.50939C11.7156 4.46564 11.9656 4.15001 11.9219 3.80001L11.8156 2.92189C14.0063 4.54689 14.9156 7.36564 14.075 9.97502C13.2344 12.5844 10.7656 14.375 8.03752 14.3813C7.63439 14.3813 7.37814 14.65 7.36877 15C7.36252 15.35 7.61252 15.65 8.03752 15.65C11.3125 15.65 14.2781 13.4969 15.2844 10.3625C16.2844 7.26564 15.2219 3.91251 12.6406 1.95627V1.95627V1.95627Z" fill="#18191a"/>
<path d="M5.33428 12.0406C5.29053 11.6937 4.97491 11.4437 4.62803 11.4875C4.28116 11.5312 4.03116 11.8469 4.07491 12.1969L4.18116 13.075C1.99053 11.45 1.08116 8.63124 1.92178 6.02187C2.76241 3.41249 5.23115 1.62187 7.95928 1.61562C8.36241 1.61562 8.61866 1.34687 8.62803 0.996866C8.63428 0.646866 8.38428 0.346866 7.95928 0.346866C4.68741 0.343741 1.72178 2.49687 0.71553 5.63124C-0.28447 8.73437 0.77803 12.0875 3.35928 14.0437L2.58428 14.1406C2.23741 14.1844 1.99053 14.5 2.03116 14.85C2.07178 15.1719 2.33428 15.4344 2.74053 15.4031L5.07178 15.1125C5.41866 15.0687 5.66553 14.7531 5.62491 14.4062L5.33428 12.0406V12.0406Z" fill="#18191a"/>
</svg>