<svg width="16" height="16" viewBox="0 0 16 16" fill="none" xmlns="http://www.w3.org/2000/svg">
<path d="M2.28592 9.14286L8.57164 9.14343C9.17382 9.14343 9.6677 9.60942 9.71136 10.201L9.7145 10.2863V11.7143C9.71392 14.1143 7.26478 14.8571 5.42878 14.8571C3.6295 14.8571 1.24081 14.1437 1.14598 11.8563L1.14307 11.7143V10.2857C1.14307 9.68353 1.60958 9.18965 2.20067 9.146L2.28592 9.14286ZM13.7145 9.14286L13.7997 9.146C14.3613 9.18747 14.8104 9.63527 14.8539 10.1962L14.8574 10.2857V11.4286C14.8568 13.5766 12.8974 14.2857 11.4288 14.2857C10.8242 14.2857 10.1379 14.1629 9.53792 13.8714C9.71964 13.6554 9.87335 13.4154 9.99335 13.1469C10.5406 13.3869 11.1311 13.4243 11.3807 13.4282L11.5455 13.4265C12.1374 13.4061 13.9058 13.2067 13.9966 11.5615L14.0002 11.4286V10.2857C14.0002 10.1455 13.8986 10.0288 13.7657 10.0046L13.7145 10L10.2568 10.0006C10.2088 9.71407 10.089 9.45339 9.91706 9.23459L9.84021 9.14343L13.7145 9.14286ZM2.28592 10L2.22841 10.0057C2.15733 10.0202 2.10878 10.0587 2.08364 10.0834C2.05895 10.1086 2.02037 10.1568 2.00592 10.228L2.00021 10.2857V11.7143C2.00021 12.4794 2.33564 13.0451 3.02592 13.4429C3.59527 13.7718 4.39126 13.9702 5.23364 13.9969L5.42878 14L5.67728 13.9942C6.54618 13.9554 8.75109 13.6761 8.85365 11.847L8.85735 11.7137V10.2863C8.85735 10.1466 8.75576 10.0295 8.62282 10.0052L8.57164 10.0006L2.28592 10ZM5.42878 1.71429C7.16478 1.71429 8.57164 3.12172 8.57164 4.85714C8.57164 6.59257 7.16478 8 5.42878 8C3.69278 8 2.28592 6.59257 2.28592 4.85714C2.28592 3.12172 3.69278 1.71429 5.42878 1.71429ZM11.7145 2.85714C13.1345 2.85714 14.2859 4.00857 14.2859 5.42857C14.2859 6.84857 13.1345 8 11.7145 8C10.2945 8 9.14307 6.84857 9.14307 5.42857C9.14307 4.00857 10.2945 2.85714 11.7145 2.85714ZM5.42878 2.57143C4.16821 2.57143 3.14307 3.59657 3.14307 4.85714C3.14307 6.11772 4.16821 7.14286 5.42878 7.14286C6.68935 7.14286 7.7145 6.11772 7.7145 4.85714C7.7145 3.59657 6.68935 2.57143 5.42878 2.57143ZM11.7145 3.71429C10.7694 3.71429 10.0002 4.48343 10.0002 5.42857C10.0002 6.37372 10.7694 7.14286 11.7145 7.14286C12.6596 7.14286 13.4288 6.37372 13.4288 5.42857C13.4288 4.48343 12.6596 3.71429 11.7145 3.71429Z" fill="#E4E6EB"/>
</svg>
