<svg width="16" height="16" viewBox="0 0 16 16" fill="none" xmlns="http://www.w3.org/2000/svg">
<path d="M14.815 0H5.97073C5.3404 0 4.82764 0.5128 4.82764 1.1431V3.82602H5.87112V1.1431C5.87112 1.08817 5.91581 1.04348 5.97073 1.04348H14.815C14.8699 1.04348 14.9146 1.08817 14.9146 1.1431V9.98734C14.9146 10.0423 14.8699 10.087 14.815 10.087H12.2157V11.1305H14.815C15.4453 11.1305 15.9581 10.6177 15.9581 9.98734V1.1431C15.958 0.5128 15.4453 0 14.815 0Z" fill="#E4E6EB"/>
<path d="M10.0291 4.86951H1.18488C0.554548 4.86951 0.041748 5.38231 0.041748 6.01264V14.8569C0.0417828 15.4872 0.554548 16 1.18488 16H10.0291C10.6595 16 11.1723 15.4872 11.1723 14.8569V6.01264C11.1723 5.38231 10.6594 4.86951 10.0291 4.86951ZM10.0292 14.9565H1.18488C1.12992 14.9565 1.08523 14.9118 1.08523 14.8569V6.01264C1.08523 5.95768 1.12992 5.91299 1.18488 5.91299H10.0291C10.0841 5.91299 10.1288 5.95768 10.1288 6.01264V14.8569H10.1288C10.1288 14.9118 10.0841 14.9565 10.0292 14.9565Z" fill="#E4E6EB"/>
</svg>