<svg width="16" height="16" viewBox="0 0 16 16" fill="none" xmlns="http://www.w3.org/2000/svg">
<path d="M6.26737 1.24796C6.26737 0.558622 5.70875 0 5.01905 0H1.27335C0.584013 0 0.0253906 0.558622 0.0253906 1.24796V4.99402C0.0253906 5.68336 0.584013 6.24198 1.27335 6.24198H5.01941C5.70875 6.24198 6.26773 5.68336 6.26773 4.99402L6.26737 1.24796ZM5.14652 4.97271C5.14652 5.05468 5.08007 5.12077 4.99811 5.12077H1.26938C1.18741 5.12077 1.12097 5.05432 1.12097 4.97271V1.24363C1.12097 1.16166 1.18741 1.09558 1.26938 1.09558H4.99847C5.08044 1.09558 5.14688 1.16202 5.14688 1.24363L5.14652 4.97271Z" fill="#E4E6EB"/>
<path d="M4.3311 1.91058H1.93628V4.3054H4.3311V1.91058Z" fill="#E4E6EB"/>
<path d="M6.26737 11.006C6.26737 10.317 5.70875 9.75836 5.01905 9.75836H1.27335C0.584013 9.75836 0.0253906 10.317 0.0253906 11.006V14.7524C0.0253906 15.4414 0.584013 16 1.27335 16H5.01941C5.70875 16 6.26773 15.4414 6.26773 14.7524L6.26737 11.006ZM5.14652 14.7502C5.14652 14.8322 5.08585 14.9048 5.00388 14.9048H1.26794C1.18597 14.9048 1.12097 14.8322 1.12097 14.7502V11.0135C1.12097 10.9316 1.18597 10.8536 1.26794 10.8536H5.00424C5.08585 10.8536 5.14688 10.9319 5.14688 11.0135L5.14652 14.7502Z" fill="#E4E6EB"/>
<path d="M4.3311 11.6686H1.93628V14.089H4.3311V11.6686Z" fill="#E4E6EB"/>
<path d="M15.9745 1.24796C15.9745 0.558622 15.4159 0 14.7266 0H10.9805C10.2912 0 9.73218 0.558622 9.73218 1.24796V4.99402C9.73218 5.68336 10.2908 6.24198 10.9805 6.24198H14.7266C15.4159 6.24198 15.9745 5.68336 15.9745 4.99402V1.24796V1.24796ZM14.854 4.97271C14.854 5.05468 14.7872 5.12077 14.7053 5.12077H10.9762C10.8942 5.12077 10.8281 5.05432 10.8281 4.97271V1.24363C10.8281 1.16166 10.8946 1.09558 10.9762 1.09558H14.7049C14.7872 1.09558 14.8537 1.16202 14.8537 1.24363V4.97271H14.854Z" fill="#E4E6EB"/>
<path d="M14.0635 1.91058H11.6431V4.3054H14.0635V1.91058Z" fill="#E4E6EB"/>
<path d="M1.44692 6.95513C1.26673 6.95513 1.12085 7.10102 1.12085 7.28121V8.10704C1.12085 8.28723 1.26673 8.43276 1.44692 8.43276H2.21643V8.46309C2.21643 8.64364 2.36231 8.78952 2.5425 8.78952H4.40759V8.81986C4.40759 9.00041 4.55347 9.14593 4.73366 9.14593H5.5595C5.73969 9.14593 5.88557 9.00041 5.88557 8.81986V8.02002C5.88557 7.83983 5.73969 7.69395 5.5595 7.69395H5.14676V7.28085C5.14676 7.10066 5.00087 6.95477 4.82069 6.95477H4.37653C4.19634 6.95477 4.05046 7.10066 4.05046 7.28085V7.69395H2.59883V7.28085C2.59883 7.10066 2.45295 6.95477 2.27276 6.95477L1.44692 6.95513Z" fill="#E4E6EB"/>
<path d="M7.51567 5.35548C7.51567 5.53567 7.66155 5.68155 7.84174 5.68155H9.02398C9.20417 5.68155 9.3497 5.53567 9.3497 5.35548V4.52964C9.3497 4.34945 9.20417 4.20357 9.02398 4.20357H8.61125V1.65564H8.66686C8.84741 1.65564 8.99293 1.50976 8.99293 1.32957V0.886499C8.99293 0.706309 8.84741 0.560425 8.66686 0.560425H7.10293C6.92274 0.560425 6.77686 0.706309 6.77686 0.886499V1.32993C6.77686 1.51012 6.92274 1.656 7.10293 1.656H7.51567V2.82814H7.10293C6.92274 2.82814 6.77686 2.97402 6.77686 3.15421V3.2156C6.77686 3.39579 6.92274 3.54167 7.10293 3.54167H7.51567V5.35548V5.35548Z" fill="#E4E6EB"/>
<path d="M8.45845 6.54244C8.45845 6.36225 8.31257 6.21637 8.13238 6.21637H7.30654C7.12635 6.21637 6.98047 6.36225 6.98047 6.54244V7.36828C6.98047 7.54847 7.12635 7.69435 7.30654 7.69435H8.13238C8.31257 7.69435 8.45845 7.54847 8.45845 7.36828V6.54244Z" fill="#E4E6EB"/>
<path d="M14.3185 10.2675H13.9062C13.7256 10.2675 13.5801 10.4134 13.5801 10.5936V12.133C13.5801 12.3128 13.7256 12.4587 13.9062 12.4587H15.4704C15.651 12.4587 15.7965 12.3128 15.7965 12.133V7.28121C15.7965 7.10102 15.651 6.95514 15.4704 6.95514H14.6446C14.4648 6.95514 14.3189 7.10102 14.3189 7.28121V10.2675H14.3185Z" fill="#E4E6EB"/>
<path d="M10.6244 9.07014H10.6804C10.8606 9.07014 11.0065 8.92462 11.0065 8.74407V7.94387C11.0065 7.76368 10.8606 7.6178 10.6804 7.6178H9.85456C9.67437 7.6178 9.52848 7.76368 9.52848 7.94387V8.35697H8.02017C7.83998 8.35697 7.69409 8.50285 7.69409 8.68304V10.5788C7.69409 10.759 7.83998 10.9049 8.02017 10.9049H10.2983C10.4782 10.9049 10.6241 10.759 10.6241 10.5788V9.07014H10.6244Z" fill="#E4E6EB"/>
<path d="M13.5796 7.33756V6.92446C13.5796 6.74427 13.4337 6.59839 13.2536 6.59839H13.1669C12.9871 6.59839 12.8412 6.74427 12.8412 6.92446V7.33756H12.0717C11.8911 7.33756 11.7456 7.48345 11.7456 7.66363V8.82096C11.7456 9.00079 11.8911 9.14667 12.0717 9.14667H13.2536C13.4337 9.14667 13.5796 9.00079 13.5796 8.82096V7.33756Z" fill="#E4E6EB"/>
<path d="M11.3885 11.3628H10.619C10.4389 11.3628 10.293 11.5086 10.293 11.6888V12.133C10.293 12.3128 10.4389 12.4587 10.619 12.4587H11.3885V15.3139C11.3885 15.4941 11.5344 15.64 11.7146 15.64H12.5148C12.695 15.64 12.8409 15.4941 12.8409 15.3139V10.2116C12.8409 10.0314 12.695 9.8855 12.5148 9.8855H11.7146C11.5344 9.8855 11.3885 10.0314 11.3885 10.2116V11.3628V11.3628Z" fill="#E4E6EB"/>
<path d="M7.71973 15.3136C7.71973 15.4938 7.86561 15.6393 8.0458 15.6393H9.22768C9.40823 15.6393 9.55376 15.4938 9.55376 15.3136V12.0453C9.55376 11.8654 9.40823 11.7195 9.22768 11.7195H8.0458C7.86561 11.7195 7.71973 11.8654 7.71973 12.0453V15.3136Z" fill="#E4E6EB"/>
<path d="M13.3247 15.3135C13.3247 15.4937 13.4706 15.6392 13.6504 15.6392H14.7316C14.9114 15.6392 15.0573 15.4937 15.0573 15.3135V14.513C15.0573 14.3331 14.9114 14.1873 14.7316 14.1873H13.6504C13.4706 14.1873 13.3247 14.3331 13.3247 14.513V15.3135Z" fill="#E4E6EB"/>
</svg>
