<svg width="24" height="24" viewBox="0 0 24 24" fill="none" xmlns="http://www.w3.org/2000/svg">
<path d="M20.8421 16C20.8421 14.3752 19.52 13.0526 17.8947 13.0526C16.2695 13.0526 14.9474 14.3752 14.9474 16V16.4211H13.2632V24H22.5263V16.4211H20.8421V16ZM15.7895 16C15.7895 14.8392 16.7339 13.8947 17.8947 13.8947C19.0556 13.8947 20 14.8392 20 16V16.4211H15.7895V16ZM21.6842 17.2632V23.1579H14.1053V17.2632H14.9474H20.8421H21.6842Z" fill="#43294C"/>
<path d="M17.4737 21.8349V22.3158C17.4737 22.5486 17.6623 22.7368 17.8947 22.7368C18.1272 22.7368 18.3158 22.5486 18.3158 22.3158V21.8349C19.04 21.6467 19.5789 20.9933 19.5789 20.2105C19.5789 19.2817 18.8236 18.5263 17.8947 18.5263C16.9659 18.5263 16.2105 19.2817 16.2105 20.2105C16.2105 20.9933 16.7495 21.6467 17.4737 21.8349ZM17.8947 19.3684C18.3592 19.3684 18.7368 19.7461 18.7368 20.2105C18.7368 20.6749 18.3592 21.0526 17.8947 21.0526C17.4303 21.0526 17.0526 20.6749 17.0526 20.2105C17.0526 19.7461 17.4303 19.3684 17.8947 19.3684Z" fill="#43294C"/>
<path d="M12 5.89474H19.5789C19.8114 5.89474 20 5.70653 20 5.47368C20 5.24084 19.8114 5.05263 19.5789 5.05263H12C11.7676 5.05263 11.5789 5.24084 11.5789 5.47368C11.5789 5.70653 11.7676 5.89474 12 5.89474Z" fill="#43294C"/>
<path d="M12 11.7895H19.5789C19.8114 11.7895 20 11.6013 20 11.3684C20 11.1356 19.8114 10.9474 19.5789 10.9474H12C11.7676 10.9474 11.5789 11.1356 11.5789 11.3684C11.5789 11.6013 11.7676 11.7895 12 11.7895Z" fill="#43294C"/>
<path d="M9.29683 3.04884C9.12083 2.89726 8.85473 2.91705 8.70315 3.09432L6.07241 6.16295L4.46315 4.95621C4.27662 4.81726 4.01305 4.85432 3.87368 5.04042C3.73389 5.2261 3.77178 5.4901 3.95789 5.62947L5.88252 7.07326C5.95831 7.1301 6.04673 7.15747 6.13515 7.15747C6.25431 7.15747 6.3722 7.10737 6.45515 7.0101L9.34231 3.64168C9.49347 3.46568 9.47326 3.20042 9.29683 3.04884Z" fill="#43294C"/>
<path d="M9.29683 8.94358C9.12083 8.792 8.85473 8.81179 8.70315 8.98905L6.07241 12.0577L4.46315 10.8509C4.27662 10.7116 4.01305 10.7495 3.87368 10.9352C3.73389 11.1208 3.77178 11.3848 3.95789 11.5242L5.88252 12.968C5.95831 13.0248 6.04673 13.0522 6.13515 13.0522C6.25431 13.0522 6.3722 13.0021 6.45515 12.9048L9.34231 9.53642C9.49347 9.36042 9.47326 9.09516 9.29683 8.94358Z" fill="#43294C"/>
<path d="M8.70273 15.3053L6.07199 18.3735L4.46315 17.1667C4.27662 17.0274 4.01305 17.0653 3.87368 17.2509C3.73389 17.4366 3.77178 17.7006 3.95789 17.84L5.88252 19.2838C5.95831 19.3406 6.04673 19.368 6.13515 19.368C6.25431 19.368 6.3722 19.3179 6.45515 19.2206L9.34231 15.8526C9.49347 15.6762 9.47326 15.4105 9.29683 15.2594C9.12083 15.1082 8.85473 15.1284 8.70273 15.3053Z" fill="#43294C"/>
<path d="M18.2417 0H5.75831C2.93137 0 0.631577 2.29979 0.631577 5.12674V17.6101C0.631577 20.4371 2.93137 22.7368 5.75831 22.7368H12C12.2324 22.7368 12.421 22.5486 12.421 22.3158C12.421 22.0829 12.2324 21.8947 12 21.8947H5.75831C3.39579 21.8947 1.47368 19.9731 1.47368 17.6101V5.12674C1.47368 2.76379 3.39579 0.842105 5.75831 0.842105H18.2417C20.6042 0.842105 22.5263 2.76379 22.5263 5.12674V15.192C22.5263 15.4248 22.7149 15.6131 22.9474 15.6131C23.1798 15.6131 23.3684 15.4248 23.3684 15.192V5.12674C23.3684 2.29979 21.0686 0 18.2417 0Z" fill="#43294C"/>
</svg>
