<svg width="24" height="24" viewBox="0 0 24 24" fill="none" xmlns="http://www.w3.org/2000/svg">
<path d="M23.9675 15.9623C23.3091 12.2308 22.1559 8.6011 20.5398 5.17391C20.1781 4.40685 19.4008 3.93168 18.5559 3.96365C16.9456 4.02446 15.4091 4.36627 13.9651 4.9822C13.9602 4.89622 13.9538 4.81037 13.9443 4.72475C13.659 2.16769 11.3465 0.318804 8.78955 0.604674C6.72776 0.834731 5.09123 2.38673 4.71999 4.38319L3.53827 4.08136C2.78952 3.89008 2.02397 4.29281 1.7573 5.01803L0.125648 9.45582C-0.0207193 9.85392 0.00860226 10.2976 0.206026 10.673C0.40345 11.0484 0.75242 11.3239 1.1634 11.4289L2.49245 11.7684L2.36788 13.5268L1.66795 14.7597C1.63309 14.8211 1.6131 14.8899 1.60967 14.9604L1.51785 16.8219L0.988317 17.5065C0.93425 17.5764 0.901857 17.6606 0.895234 17.7487L0.729902 19.9374L0.0639942 21.0512C-0.0299915 21.2084 -0.019756 21.4068 0.0899441 21.5534L1.35396 23.2433C1.44085 23.3594 1.57595 23.4244 1.71564 23.4244C1.76224 23.4244 1.80938 23.4172 1.85538 23.4022L4.20821 22.636C4.3553 22.5882 4.46765 22.4683 4.50589 22.3184L6.91218 12.8972L8.16904 13.2182C8.2912 13.2494 8.41577 13.2647 8.5398 13.2647C8.83308 13.2647 9.12334 13.1789 9.37164 13.014C9.72495 12.7792 9.96338 12.4039 10.0259 11.9844L10.3527 9.78926C10.6697 9.71701 10.975 9.61309 11.2648 9.47979C11.9479 12.7611 13.0149 15.9538 14.4455 18.9876C14.7957 19.7304 15.5371 20.1994 16.3496 20.1994C16.3761 20.1994 16.4027 20.1989 16.4294 20.1979C18.8175 20.1077 21.0436 19.4004 23.0459 18.0957C23.7531 17.6349 24.1149 16.7974 23.9675 15.9623ZM4.95318 6.94386C4.95607 6.94386 4.95896 6.94434 4.96191 6.9444C5.07582 7.23569 5.21876 7.5153 5.38921 7.77817C5.47567 7.91153 5.62059 7.98414 5.76852 7.98414C5.85269 7.98414 5.93783 7.9606 6.01375 7.91141C6.22304 7.77576 6.2827 7.49615 6.14705 7.28687C6.13338 7.26579 6.12032 7.24436 6.10713 7.22299L6.88172 7.42083C7.13905 7.48658 7.29493 7.74939 7.22918 8.00672C7.16343 8.26399 6.9005 8.41987 6.64329 8.35419L4.83487 7.89232C4.71023 7.86047 4.60541 7.78202 4.53978 7.67136C4.47416 7.5607 4.45555 7.43113 4.48734 7.30644C4.51913 7.18174 4.5977 7.07698 4.70831 7.01135C4.78363 6.96674 4.86774 6.94386 4.95318 6.94386ZM1.55976 20.3095C1.5957 20.2493 1.6172 20.1816 1.62249 20.1117L1.7856 17.9519L2.31905 17.2621C2.37558 17.189 2.40828 17.1004 2.41285 17.0081L2.50642 15.1121L3.20381 13.8837C3.23705 13.8251 3.2568 13.7598 3.26155 13.6926L3.38179 11.9955L4.01211 12.1565L1.51165 21.9463L0.994458 21.2548L1.55976 20.3095ZM6.03717 12.6737L3.69235 21.8542L2.3562 22.2894L4.88713 12.38L5.65864 12.577L6.03717 12.6737ZM9.13256 11.8514C9.10733 12.0211 9.01473 12.1668 8.87185 12.2617C8.72898 12.3567 8.55871 12.3856 8.39253 12.3431L1.38696 10.5538C1.22072 10.5114 1.08525 10.4044 1.00542 10.2526C0.925519 10.1007 0.91414 9.92846 0.973325 9.76746L2.60498 5.32967C2.71125 5.0406 3.01632 4.88003 3.31484 4.95631L4.64154 5.29517C4.64352 5.4502 4.65237 5.60536 4.66953 5.75937C4.68085 5.86089 4.69669 5.9618 4.71463 6.06234C4.55195 6.091 4.3939 6.14778 4.24753 6.23454C3.92939 6.42323 3.70379 6.72452 3.61227 7.08288C3.52069 7.4413 3.57422 7.81387 3.76291 8.13202C3.9516 8.45016 4.25289 8.67576 4.61125 8.76728L6.41968 9.22914C6.53401 9.25834 6.64979 9.27279 6.76479 9.27279C7.01026 9.27279 7.25218 9.20698 7.46881 9.0785C7.78695 8.8898 8.01256 8.58852 8.10413 8.23009C8.19571 7.87167 8.14212 7.4991 7.95349 7.18102C7.7648 6.86288 7.46351 6.63722 7.10515 6.5457L5.66267 6.17728C5.61926 6.00725 5.58663 5.83397 5.56712 5.65919C5.56231 5.61572 5.55887 5.57213 5.5555 5.52847L9.38501 6.50656C9.6834 6.58279 9.87421 6.86992 9.82881 7.17452L9.13256 11.8514ZM10.4981 8.81219L10.7221 7.3077C10.8359 6.54347 10.3571 5.8229 9.60845 5.63173L5.59693 4.60716C5.87467 2.96961 7.2066 1.69005 8.88974 1.50226C10.9519 1.27233 12.8167 2.76279 13.0468 4.82488C13.0684 5.01851 13.0742 5.21382 13.066 5.40715C12.6832 5.6065 12.3075 5.82597 11.9394 6.06578C11.2322 6.52661 10.8705 7.36399 11.0178 8.19921C11.0391 8.31993 11.0624 8.44028 11.0847 8.56076C10.8977 8.66077 10.7016 8.74488 10.4981 8.81219ZM22.5528 17.339C20.6895 18.5532 18.6178 19.2114 16.3953 19.2954C15.9145 19.3131 15.4694 19.0416 15.2623 18.6024C13.818 15.5394 12.7527 12.3109 12.0876 8.9924C12.6062 8.60736 13.0456 8.11251 13.3743 7.52909C13.4967 7.31179 13.4198 7.0364 13.2025 6.914C12.9852 6.79159 12.7099 6.86848 12.5874 7.08577C12.3994 7.41939 12.1659 7.71634 11.8974 7.9721C11.8441 7.51783 12.0488 7.07253 12.4324 6.82248C14.2957 5.60825 16.3675 4.95005 18.5899 4.86612C18.6051 4.86558 18.6202 4.86528 18.6353 4.86528C19.0989 4.86528 19.5224 5.13381 19.7229 5.55906C21.3048 8.9137 22.4335 12.4667 23.0781 16.1192C23.1625 16.5973 22.9563 17.0761 22.5528 17.339Z" fill="#43294C"/>
<path d="M21.5642 14.2372C21.4096 13.7506 20.8879 13.4805 20.4013 13.6351L16.0146 15.0288C15.528 15.1834 15.2579 15.7051 15.4125 16.1917L15.8306 17.5078C15.9558 17.9015 16.3211 18.1535 16.7138 18.1535C16.8064 18.1535 16.9007 18.1395 16.9935 18.11L21.3802 16.7163C21.8668 16.5616 22.1369 16.0399 21.9823 15.5533L21.5642 14.2372ZM16.72 17.2492C16.7081 17.2531 16.6951 17.2464 16.6913 17.2344L16.2731 15.9183C16.2693 15.9063 16.2759 15.8934 16.288 15.8895L18.051 15.3294L18.4829 16.6891L16.72 17.2492ZM21.1067 15.8555L19.3437 16.4156L18.9117 15.0559L20.6747 14.4958C20.677 14.495 20.6793 14.4947 20.6816 14.4947C20.6913 14.4947 20.7004 14.5009 20.7034 14.5106L21.1216 15.8267C21.1254 15.8388 21.1187 15.8517 21.1067 15.8555Z" fill="#43294C"/>
<path d="M14.1541 9.72538L18.8594 8.2304C19.0971 8.1549 19.2286 7.901 19.1531 7.66329C19.0776 7.42559 18.8234 7.29415 18.586 7.36966L13.8807 8.86463C13.643 8.94014 13.5115 9.19404 13.587 9.43174C13.6481 9.62393 13.8258 9.74669 14.0173 9.74669C14.0626 9.74669 14.1087 9.73983 14.1541 9.72538Z" fill="#43294C"/>
<path d="M19.5907 9.0405C19.5152 8.8028 19.261 8.67142 19.0236 8.74686L14.3183 10.2418C14.0806 10.3173 13.9491 10.5712 14.0246 10.8089C14.0857 11.0011 14.2634 11.1239 14.4549 11.1239C14.5002 11.1239 14.5463 11.117 14.5917 11.1026L19.297 9.60761C19.5347 9.53205 19.6662 9.27815 19.5907 9.0405Z" fill="#43294C"/>
</svg>
