<svg width="16" height="16" viewBox="0 0 16 16" fill="none" xmlns="http://www.w3.org/2000/svg">
<path d="M2.81591 1.35467L7.99991 6.53867L13.1626 1.376C13.3454 1.18144 13.5996 1.06976 13.8666 1.06667C14.4557 1.06667 14.9332 1.54421 14.9332 2.13333C14.9383 2.39765 14.834 2.65237 14.6452 2.83733L9.42925 8L14.6452 13.216C14.821 13.3879 14.9242 13.6209 14.9332 13.8667C14.9332 14.4558 14.4557 14.9333 13.8666 14.9333C13.5917 14.9447 13.3247 14.8402 13.1306 14.6453L7.99991 9.46133L2.82658 14.6347C2.6445 14.8227 2.3949 14.9302 2.13325 14.9333C1.54413 14.9333 1.06658 14.4558 1.06658 13.8667C1.06157 13.6023 1.16578 13.3476 1.35458 13.1627L6.57058 8L1.35458 2.784C1.17879 2.61205 1.07565 2.37909 1.06658 2.13333C1.06658 1.54421 1.54413 1.06667 2.13325 1.06667C2.38967 1.06976 2.63469 1.17312 2.81591 1.35467Z" fill="#B0B3B8"/>
</svg>
